<?xml version="1.0" encoding="UTF-8"?>
<svg width="33px" height="40px" viewBox="0 0 33 40" version="1.1" xmlns="http://www.w3.org/2000/svg" xmlns:xlink="http://www.w3.org/1999/xlink">
    <!-- Generator: sketchtool 48.2 (47327) - http://www.bohemiancoding.com/sketch -->
    <title>3C5D3EC2-51C7-4422-923E-48A49E57E73D</title>
    <desc>Created with sketchtool.</desc>
    <defs></defs>
    <g id="홈" stroke="none" stroke-width="1" fill="none" fill-rule="evenodd" transform="translate(-438.000000, -1287.000000)">
        <g id="Group-2" transform="translate(0.000000, 1246.000000)" fill="#9B9B9B">
            <g id="alram" transform="translate(438.000000, 41.000000)">
                <path d="M33.0195312,32.0961914 C30.0891927,32.2277018 28.6240234,28.3623047 28.6240234,20.5 C28.6240234,12.6376953 25.6041667,7.53531901 19.5644531,5.19287109 C19.5852865,1.73095703 18.3989258,0 16.0053711,0 C13.6118164,0 12.3479818,1.73095703 12.2138672,5.19287109 C6.91373698,8.63850911 4.26367188,13.7408854 4.26367188,20.5 C4.26367188,27.2591146 2.84244792,31.1245117 0,32.0961914 L33.0195312,32.0961914 Z" id="Path-6"></path>
                <path d="M12.1181641,34.9775391 L21.1328125,34.9775391 C20.7080078,38.2115885 19.2055664,39.8393555 16.6254883,39.8608398 C14.0454102,39.8823242 12.5429688,38.2545573 12.1181641,34.9775391 Z" id="Path-5"></path>
            </g>
        </g>
    </g>
</svg>