<?xml version="1.0" encoding="UTF-8"?>
<svg width="75px" height="75px" viewBox="0 0 75 75" version="1.1" xmlns="http://www.w3.org/2000/svg" xmlns:xlink="http://www.w3.org/1999/xlink">
    <!-- Generator: sketchtool 48.2 (47327) - http://www.bohemiancoding.com/sketch -->
    <title>830BB672-C83B-4407-A331-9E69992F9DA2</title>
    <desc>Created with sketchtool.</desc>
    <defs></defs>
    <g id="회원가입-2" stroke="none" stroke-width="1" fill="none" fill-rule="evenodd" transform="translate(-385.000000, -420.000000)">
        <g id="Group-4" transform="translate(181.000000, 216.000000)">
            <g id="camera" transform="translate(204.000000, 204.000000)">
                <circle id="Oval-2" fill="#D34A9A" cx="37.5" cy="37.5" r="37.5"></circle>
                <path d="M52,25.9496094 L47,25.9496094 L43.6666406,21 L30.3333594,21 L27,25.9499961 L22,25.9499961 C19.2375,25.9499961 17,28.1915709 17,30.925593 L17,49.0500039 C17,51.7848767 19.2375,54 22,54 L52,54 C54.7625,54 57,51.8100134 57,49.0756046 L57,30.9511938 C57,28.2163209 54.7625,25.9496094 52,25.9496094 Z M53.6666406,49.0756046 C53.6666406,49.9876414 52.9346094,50.7000541 52,50.7000541 L22,50.7000541 C21.0808594,50.7000541 20.3333594,49.9599524 20.3333594,49.0500039 L20.3333594,30.925593 C20.3333594,30.002032 21.0808594,29.2500193 22,29.2500193 L28.78375,29.2500193 L32.1171094,24.3000232 L41.94125,24.3000232 L45.2158594,29.2500193 L52,29.2500193 C52.9033594,29.2500193 53.6666406,30.029257 53.6666406,30.9515805 L53.6666406,49.0756046 Z M37,30.8999923 C32.3975,30.8999923 28.6666406,34.5940042 28.6666406,39.1500116 C28.6666406,43.7060963 32.3978906,47.4000309 37,47.4000309 C41.6025,47.4000309 45.3333594,43.706483 45.3333594,39.1500116 C45.3333594,34.5935402 41.6025,30.8999923 37,30.8999923 Z M37,44.1000077 C34.2428906,44.1000077 32,41.8795478 32,39.1500116 C32,36.4204755 34.2425,34.2000155 37,34.2000155 C39.7571094,34.2000155 42,36.4204755 42,39.1500116 C42,41.8795478 39.7566406,44.1000077 37,44.1000077 Z" id="Page-1" fill="#FFFFFF"></path>
            </g>
        </g>
    </g>
</svg>