<?xml version="1.0" encoding="UTF-8"?>
<svg width="30px" height="30px" viewBox="0 0 30 30" version="1.1" xmlns="http://www.w3.org/2000/svg" xmlns:xlink="http://www.w3.org/1999/xlink">
    <!-- Generator: sketchtool 48.2 (47327) - http://www.bohemiancoding.com/sketch -->
    <title>1403943A-49EE-4F05-AE11-D597B15136B9</title>
    <desc>Created with sketchtool.</desc>
    <defs></defs>
    <g id="홈" stroke="none" stroke-width="1" fill="none" fill-rule="evenodd" transform="translate(-202.000000, -1217.000000)">
        <g id="feed_1" transform="translate(-10.000000, 374.000000)" fill="#9B9B9B">
            <g id="action" transform="translate(0.000000, 822.000000)">
                <path d="M236.000014,21 L217.999986,21 C214.690934,21 212,23.7227197 212,27.0707002 L212,39.2121718 C212,42.0350584 213.915456,44.4162999 216.500007,45.0901503 L216.500007,51 L225.915498,45.282872 L236.000014,45.282872 C239.309066,45.282872 242,42.5602235 242,39.2121718 L242,27.0707002 C242,23.7227197 239.309066,21 236.000014,21 Z M239.000042,39.2121718 C239.000042,40.8861265 237.65447,42.2475575 236.000014,42.2475575 L225.084474,42.2475575 L219.499965,45.6365154 L219.499965,42.2475575 L217.999986,42.2475575 C216.34546,42.2475575 214.999958,40.8861265 214.999958,39.2121718 L214.999958,27.0707002 C214.999958,25.3967455 216.34546,24.0353857 217.999986,24.0353857 L236.000014,24.0353857 C237.65447,24.0353857 239.000042,25.3967455 239.000042,27.0707002 L239.000042,39.2121718 Z" id="re"></path>
            </g>
        </g>
    </g>
</svg>