<?xml version="1.0" encoding="UTF-8"?>
<svg width="40px" height="20px" viewBox="0 0 40 20" version="1.1" xmlns="http://www.w3.org/2000/svg" xmlns:xlink="http://www.w3.org/1999/xlink">
    <!-- Generator: sketchtool 48.2 (47327) - http://www.bohemiancoding.com/sketch -->
    <title>B8158838-8508-4419-8244-9AFAC92EA925</title>
    <desc>Created with sketchtool.</desc>
    <defs></defs>
    <g id="홈" stroke="none" stroke-width="1" fill="none" fill-rule="evenodd" transform="translate(-553.000000, -95.000000)">
        <g id="IYFhead" fill="#FFFFFF">
            <path d="M555,95 L591,95 C592.104569,95 593,95.8954305 593,97 C593,98.1045695 592.104569,99 591,99 L555,99 C553.895431,99 553,98.1045695 553,97 C553,95.8954305 553.895431,95 555,95 Z M555,103 L591,103 C592.104569,103 593,103.895431 593,105 C593,106.104569 592.104569,107 591,107 L555,107 C553.895431,107 553,106.104569 553,105 C553,103.895431 553.895431,103 555,103 Z M555,111 L591,111 C592.104569,111 593,111.895431 593,113 C593,114.104569 592.104569,115 591,115 L555,115 C553.895431,115 553,114.104569 553,113 C553,111.895431 553.895431,111 555,111 Z" id="Combined-Shape"></path>
        </g>
    </g>
</svg>