<?xml version="1.0" encoding="UTF-8"?>
<svg width="17px" height="38px" viewBox="0 0 17 38" version="1.1" xmlns="http://www.w3.org/2000/svg" xmlns:xlink="http://www.w3.org/1999/xlink">
    <!-- Generator: sketchtool 48.2 (47327) - http://www.bohemiancoding.com/sketch -->
    <title>0DCC105F-3A40-4B9A-89B2-551B9EB7B084</title>
    <desc>Created with sketchtool.</desc>
    <defs></defs>
    <g id="홈" stroke="none" stroke-width="1" fill="none" fill-rule="evenodd" transform="translate(-58.000000, -1288.000000)">
        <g id="Group-2" transform="translate(0.000000, 1246.000000)">
            <g id="home" transform="translate(58.000000, 42.000000)">
                <path d="M13,6.99999977 C13,10.313968 10.0901324,13.001281 6.5,12.9999995 C2.90986758,12.9999995 0,10.313968 0,6.99999977 C0,3.68603151 2.90986758,1 6.5,1 C10.0901324,1 13,3.68731301 13,6.99999977" id="Fill-1" fill="#8F278E"></path>
                <path d="M4,15 L4,31.6130326 C4,31.6130326 4.37479727,37.8590922 9.84218665,37.8795879 L13.1031965,38 C13.1031965,38 16.9113556,37.9487608 16.9783814,35.5494848 C17.0358321,33.5614035 16.960599,32.4085213 16.960599,32.4085213 L14.2125417,32.4085213 C13.8842521,32.4085213 13.5737449,32.2868282 13.3398386,32.0716235 C12.9007512,31.6681147 12.2865761,30.9097744 12.2865761,29.8222222 L12.2865761,19.6755778 C12.2865761,19.6755778 12.8159431,15.0999165 7.50585914,15.0999165 L4,15 Z" id="Fill-3" fill="#D34A9A"></path>
                <path d="M17,6.00000023 C17,9.31396849 14.0887441,12 10.4986117,12 C6.90847928,12 4,9.31268699 4,6.00000023 C4,2.68603197 6.90847928,-0.00128104544 10.4986117,4.58144065e-07 C14.0887441,4.58144065e-07 17,2.68603197 17,6.00000023" id="Fill-16" fill="#EA3894"></path>
            </g>
        </g>
    </g>
</svg>