<?xml version="1.0" encoding="UTF-8"?>
<svg width="30px" height="30px" viewBox="0 0 30 30" version="1.1" xmlns="http://www.w3.org/2000/svg" xmlns:xlink="http://www.w3.org/1999/xlink">
    <!-- Generator: sketchtool 48.2 (47327) - http://www.bohemiancoding.com/sketch -->
    <title>AC35CFB5-7896-466B-88E5-F445F9E679ED</title>
    <desc>Created with sketchtool.</desc>
    <defs></defs>
    <g id="홈" stroke="none" stroke-width="1" fill="none" fill-rule="evenodd" transform="translate(-30.000000, -1217.000000)">
        <g id="feed_1" transform="translate(-10.000000, 374.000000)" fill="#9B9B9B">
            <g id="action" transform="translate(0.000000, 822.000000)">
                <path d="M55,51 L42.5139571,37.2371463 C40.892478,35.4396398 40,33.0510134 40,30.5117838 C40,27.9725541 40.892478,25.5839277 42.5110039,23.7880558 C44.1294596,21.9922581 46.2804629,21.0015603 48.5709665,21.0015603 C50.8614701,21.0015603 53.0124735,21.9906235 54.632476,23.7880558 C54.7600231,23.9275143 54.8814529,24.0749227 55,24.2239658 C55.1185471,24.0733625 55.2399769,23.9275143 55.3690006,23.7864955 C56.9890031,21.9890632 59.141483,21 61.4290335,21 C63.7179902,21 65.8705404,21.9906235 67.4889961,23.7864955 C69.1089986,25.5822932 70,27.9709938 70,30.5117838 C70,33.0525737 69.1089986,35.4396398 67.4889961,37.2355118 L55,51 Z M48.5709665,24.1716595 C47.0454641,24.1716595 45.6099619,24.8310598 44.5315071,26.029348 C43.4515054,27.2260015 42.8559576,28.818964 42.8559576,30.5117838 C42.8559576,32.2046035 43.4499585,33.797566 44.5299602,34.9942939 L55,46.5333898 L65.4715164,34.9895388 C66.5484946,33.7960057 67.1424955,32.2046035 67.1424955,30.5102235 C67.1424955,28.8157691 66.5484946,27.2244413 65.4685632,26.0277134 C64.3884912,24.8294252 62.9545359,24.1700993 61.4290335,24.1700993 C59.9034608,24.1700993 58.4679585,24.8294252 57.3895037,26.0277134 C56.9544796,26.5095399 56.5959556,27.0912981 56.2930489,27.8030046 L55,30.8335711 L53.708498,27.8030046 C53.4055209,27.0912981 53.0455204,26.5111745 52.6119728,26.0277134 C51.5319711,24.8310598 50.0964689,24.1716595 48.5709665,24.1716595 Z" id="like"></path>
            </g>
        </g>
    </g>
</svg>