<?xml version="1.0" encoding="UTF-8"?>
<svg width="404px" height="64px" viewBox="0 0 404 64" version="1.1" xmlns="http://www.w3.org/2000/svg" xmlns:xlink="http://www.w3.org/1999/xlink">
    <!-- Generator: sketchtool 48.2 (47327) - http://www.bohemiancoding.com/sketch -->
    <title>EDE472E0-8782-41E7-A01B-170649768E79</title>
    <desc>Created with sketchtool.</desc>
    <defs>
        <polygon id="path-1" points="0.0243368421 0.704904 33.4556342 0.704904 33.4556342 46 0.0243368421 46"></polygon>
        <polygon id="path-3" points="0.526821053 0.689261072 33.2448421 0.689261072 33.2448421 35.9276167 0.526821053 35.9276167"></polygon>
    </defs>
    <g id="로그인" stroke="none" stroke-width="1" fill="none" fill-rule="evenodd" transform="translate(-81.000000, -314.000000)">
        <g id="Page-1" transform="translate(81.000000, 314.000000)">
            <path d="M18,9.49999968 C18,14.194788 13.9709526,18.0018148 9,17.9999994 C4.02904742,17.9999994 0,14.194788 0,9.49999968 C0,4.8052113 4.02904742,1 9,1 C13.9709526,1 18,4.80702677 18,9.49999968" id="Fill-1" fill="#8F278E"></path>
            <path d="M6,21 L6,44.8360902 C6,44.8360902 6.51895007,53.7978279 14.0891815,53.8272348 L18.6044259,54 C18.6044259,54 23.8772616,53.9264829 23.9700666,50.4840434 C24.0496136,47.6315789 23.9454448,45.9774436 23.9454448,45.9774436 L20.1404423,45.9774436 C19.6858875,45.9774436 19.2559544,45.8028404 18.9320841,45.4940685 C18.3241171,44.9151211 17.4737208,43.8270677 17.4737208,42.2666667 L17.4737208,27.7084378 C17.4737208,27.7084378 18.2066904,21.1433584 10.8542665,21.1433584 L6,21 Z" id="Fill-3" fill="#D34A9A"></path>
            <path d="M106.471439,25.8575335 C106.471439,25.8575335 104.754094,19.1550102 96.0254841,19.1550102 C87.2968745,19.1550102 80,24.1087229 80,33.8716649 L80,49.462725 C80,49.462725 81.1442826,54.7072806 85.1520356,54.7072806 C89.157946,54.709157 91.3046275,54.709157 91.3046275,54.709157 L91.3046275,34.1625079 C91.3046275,34.1625079 90.5878385,28.6252328 96.3110941,28.6252328 C101.17752,28.6252328 100.604457,33.5808219 100.604457,33.5808219 L100.604457,50.774333 C100.604457,50.774333 101.894309,55 105.612766,55 C109.334909,55 112.052811,54.8555167 112.052811,54.8555167 L112.052811,32.9972596 C112.052811,32.9972596 112.340264,28.7715925 116.917394,28.7715925 C121.496367,28.7715925 121.496367,34.0180246 121.496367,34.0180246 L121.496367,50.774333 C121.496367,50.774333 123.071828,55 127.792685,55 L133,55 L133,32.9972596 C133,32.9972596 132.795466,19.3858082 119.493412,19.0086505 C109.191183,18.7178075 106.471439,25.8575335 106.471439,25.8575335" id="Fill-5" fill="#D34A9A"></path>
            <g id="Group-9" transform="translate(150.000000, 18.000000)">
                <mask id="mask-2" fill="white">
                    <use xlink:href="#path-1"></use>
                </mask>
                <g id="Clip-8"></g>
                <path d="M0.0243368421,0.933064 C0.0243368421,0.933064 4.05423158,20.994584 12.3913895,32.996904 C12.3913895,32.996904 10.5858105,37.712824 5.72202105,37.712824 L1.27517895,37.712824 L1.27517895,40.285144 C1.27517895,40.285144 1.27517895,46.000184 7.5276,46.000184 C13.7818105,46.000184 16.5608632,42.570424 16.5608632,42.570424 C16.5608632,42.570424 30.3183368,23.281704 32.8200211,8.707064 C32.8200211,8.707064 35.7386526,0.990104 29.0674947,0.990104 L23.5093895,0.704904 C23.5093895,0.704904 18.3682316,22.709464 16.9778105,22.565944 C15.5873895,22.424264 12.2536,6.221224 12.2536,6.221224 C12.2536,6.221224 10.5840211,0.933064 6.27675789,0.933064 L0.0243368421,0.933064 Z" id="Fill-7" fill="#D34A9A" mask="url(#mask-2)"></path>
            </g>
            <path d="M206.5,43.510884 C202.237984,43.510884 198.780724,40.148186 198.780724,36 C198.780724,31.851814 202.236108,28.4872764 206.5,28.4872764 C210.763892,28.4872764 214.221152,31.851814 214.221152,36 C214.221152,40.148186 210.763892,43.510884 206.5,43.510884 M206.5,18 C196.282042,18 188,26.05907 188,36 C188,45.94093 196.283918,54 206.5,54 C216.717958,54 225,45.94093 225,36 C225,26.05907 216.717958,18 206.5,18" id="Fill-10" fill="#D34A9A"></path>
            <path d="M229,19.4146124 L235.37386,19.4146124 C235.37386,19.4146124 240.616697,19.2770039 240.616697,24.5508016 L240.616697,38.9836005 C240.616697,38.9836005 241.466788,44.1180026 246,44.1180026 C250.533212,44.1180026 251.525593,40.6491984 251.525593,39.5393955 C251.525593,38.4278055 251.666059,19 251.666059,19 L257.191651,19.1376084 C257.191651,19.1376084 262.859534,19.1376084 262.859534,24.2720105 C262.859534,29.4081997 263,40.2327989 263,40.2327989 C263,40.2327989 262.292199,53 248.267518,53 C234.242837,53 229.282756,45.9229961 229.282756,40.9262024 C229.282756,35.9294087 229,19.4146124 229,19.4146124" id="Fill-12" fill="#D34A9A"></path>
            <path d="M282.580646,52 L282.578808,30.6952712 C282.578808,30.6952712 283.501445,26.9164841 287.71764,26.1825274 C290.143698,25.7592306 292,27.5923056 292,27.5923056 L292,21.7533529 C292,21.7533529 291.00017,18 283.43528,18 C275.872228,18 272.018104,22.7961528 272.018104,29.7087897 L272.018104,45.6505477 C272.018104,45.6505477 271.44651,51.8582955 276.726862,51.8582955 C282.007214,51.8582955 282.580646,52 282.580646,52" id="Fill-14" fill="#D34A9A"></path>
            <path d="M24,8.50000032 C24,13.1947887 19.9690303,17 14.9980777,17 C10.0271252,17 6,13.1929732 6,8.50000032 C6,3.80521195 10.0271252,-0.00181481437 14.9980777,6.49037426e-07 C19.9690303,6.49037426e-07 24,3.80521195 24,8.50000032" id="Fill-16" fill="#EA3894"></path>
            <path d="M320.958238,29.2951961 C320.958238,29.2951961 325.426978,29.4146823 325.724413,29.2951961 C326.021849,29.1757098 328.404936,28.098523 328.642885,26.3044187 C328.880833,24.5085039 328.642885,21.9377389 328.642885,21.9377389 L320.958238,21.9377389 C320.958238,21.9377389 320.779777,17.5692487 320.958238,16.9120742 C321.138502,16.2548998 322.38773,14.1005262 324.354408,13.98104 C326.321087,13.8615537 329.654165,13.8615537 330.906998,14.7595111 C330.906998,14.7595111 331.440579,11.2889783 329.9516,8.47743027 C328.464423,5.66588228 321.971321,6.265124 321.31516,6.02434107 C320.660803,5.78536854 312.440772,7.16127097 310,16.6731017 L310,46.7619153 C310,46.7619153 310.237948,51.3096349 316.788736,51.78758 C323.341326,52.265525 320.898751,51.78758 320.898751,51.78758 L320.958238,29.2951961 Z" id="Fill-18" fill="#D34A9A"></path>
            <g id="Group-22" transform="translate(370.000000, 18.000000)">
                <mask id="mask-4" fill="white">
                    <use xlink:href="#path-3"></use>
                </mask>
                <g id="Clip-21"></g>
                <path d="M11.6680842,35.79195 L11.6680842,14.282 C11.6680842,14.282 12.4930316,10.0788 16.9148211,10.0788 C21.3348211,10.0788 21.9844,13.7862 22.1007158,14.52065 C22.2188211,15.25695 22.5140842,31.89215 22.5140842,31.89215 C22.5140842,31.89215 23.2209263,35.4867 27.8789263,35.79195 C32.5333474,36.0972 33.2419789,35.79195 33.2419789,35.79195 L33.2419789,14.52065 C33.2419789,14.52065 33.4173474,10.6264 31.2968211,6.78765 C29.1745053,2.9489 22.4550316,0.57165 17.4462947,0.69375 C12.4357684,0.81585 7.6024,2.5826 6.36408421,3.8628 C5.12576842,5.14115 1.41261053,7.57945 0.526821053,13.7936 L0.526821053,30.673 C0.526821053,30.673 0.882926316,35.14815 6.65755789,35.927 L11.6680842,35.79195 Z" id="Fill-20" fill="#D34A9A" mask="url(#mask-4)"></path>
            </g>
            <path d="M354.875316,45.3389307 C353.736041,46.2382817 348.826569,48.1908932 345.850578,46.6072937 C342.872761,45.0218399 343.948134,41.1407232 344.817197,40.6344906 C345.615055,40.1727619 347.437164,38.8728752 354.669005,39.592356 C354.669005,39.592356 355.344537,44.9699186 354.875316,45.3389307 M364.166616,29.6568456 C363.357804,27.351911 361.048216,19 348.853955,19 C336.659695,19 335.385313,26.3450088 335.385313,26.3450088 L335.385313,27.4965489 L335.385313,31.5297208 C335.385313,31.5297208 338.786707,27.8414546 343.18314,27.8414546 L349.507578,27.8414546 C349.507578,27.8414546 354.513816,27.5985371 354.513816,31.4852169 L354.513816,32.7535799 L347.095747,33.0855053 C331.925495,33.0855053 334.109106,43.3362522 334.109106,43.3362522 C334.109106,43.3362522 332.975308,55 349.136948,55 C365.30224,55.0018543 364.876838,44.7770681 364.876838,44.7770681 C365.159831,37.865973 364.968126,31.9395282 364.166616,29.6568456" id="Fill-23" fill="#D34A9A"></path>
            <path d="M55.0009048,43.0536661 C51.083187,43.0536661 47.9073926,39.8832949 47.9073926,35.9717744 C47.9073926,32.0602539 51.083187,28.8880617 55.0009048,28.8880617 C58.9186226,28.8880617 62.0944169,32.0602539 62.0944169,35.9717744 C62.0944169,39.8832949 58.9186226,43.0536661 55.0009048,43.0536661 M72,35.9717744 C72,35.6840555 71.9710469,35.4054416 71.9565703,35.1213647 L71.9547608,34.4239194 C71.9059024,33.8084195 71.8063761,33.1965615 71.6616105,32.5974506 C70.0945234,24.8417867 63.2326361,19 55.0009048,19 C45.6128586,19 38,26.5972364 38,35.9717744 C38,45.3444915 45.6128586,52.9435488 55.0009048,52.9435488 C58.408324,52.9435488 61.5750705,51.9310696 64.2351376,50.2083981 C65.0241099,51.3629158 66.6454841,53 69.5082229,53 L71.9800947,53 L71.9583799,36.780301 C71.9710469,36.5107921 72,36.2449253 72,35.9717744" id="Fill-25" fill="#D34A9A"></path>
        </g>
    </g>
</svg>