<?xml version="1.0" encoding="UTF-8"?>
<svg width="525px" height="717px" viewBox="0 0 525 717" version="1.1" xmlns="http://www.w3.org/2000/svg" xmlns:xlink="http://www.w3.org/1999/xlink">
    <!-- Generator: sketchtool 48.2 (47327) - http://www.bohemiancoding.com/sketch -->
    <title>0B54EE74-232D-4E41-92F5-1DAD06D2DC40</title>
    <desc>Created with sketchtool.</desc>
    <defs>
        <polygon id="path-1" points="0.000219601873 0.121296992 546.988518 0.121296992 546.988518 717 0.000219601873 717"></polygon>
    </defs>
    <g id="로그인" stroke="none" stroke-width="1" fill="none" fill-rule="evenodd" transform="translate(0.000000, -19.000000)" opacity="0.100000001">
        <g id="Page-1" transform="translate(-290.000000, 19.000000)">
            <g id="Group-3" opacity="0.688122736">
                <mask id="mask-2" fill="white">
                    <use xlink:href="#path-1"></use>
                </mask>
                <g id="Clip-2"></g>
                <path d="M507.773124,281.631181 C587.937431,171.999209 535.979902,56.4333525 435.037634,87.5452986 C332.01252,119.299767 294.963116,-1.3747725 176.73323,0.130745852 C60.9459537,1.61736648 -11.7453553,115.558019 1.56592114,225.328574 C29.7726989,457.934308 236.504585,691.100675 357.839805,714.250382 C559.730653,752.770234 439.001352,375.691432 507.773124,281.631181" id="Fill-1" fill="#7156A3" mask="url(#mask-2)"></path>
            </g>
            <path d="M284.618303,191.268621 C339.483253,140.846936 417.20965,77.0694324 519.058466,20.7139302 C668.212697,-61.8235173 843.664528,120.081727 811.043147,253.564246 C753.328398,489.718835 578.22964,565.017151 487.767413,639.1678 C331.860669,766.993959 287.758127,607.770905 210.473071,520.522978 C146.100382,447.854207 215.970915,254.358785 284.618303,191.268621 Z" id="Fill-4" fill="#EA3894" opacity="0.64209692"></path>
        </g>
    </g>
</svg>