<?xml version="1.0" encoding="UTF-8"?>
<svg width="220px" height="35px" viewBox="0 0 220 35" version="1.1" xmlns="http://www.w3.org/2000/svg" xmlns:xlink="http://www.w3.org/1999/xlink">
    <!-- Generator: sketchtool 48.2 (47327) - http://www.bohemiancoding.com/sketch -->
    <title>0BD343B8-1336-42E2-8E83-4807F98B6F6F</title>
    <desc>Created with sketchtool.</desc>
    <defs></defs>
    <g id="홈" stroke="none" stroke-width="1" fill="none" fill-rule="evenodd" transform="translate(-51.000000, -88.000000)">
        <g id="IYFhead" fill="#FFFFFF">
            <g id="logo" transform="translate(51.000000, 88.000000)">
                <path d="M9.364,4.682 C9.364,7.268 7.268,9.365 4.682,9.364 C2.096,9.364 0,7.268 0,4.682 C0,2.096 2.096,0 4.682,0 C7.268,0 9.364,2.097 9.364,4.682" id="Fill-1" opacity="0.600000024"></path>
                <path d="M3,11 L3,23.969 C3,23.969 3.274,28.845 7.271,28.861 L9.655,28.955 C9.655,28.955 12.439,28.915 12.488,27.042 C12.53,25.49 12.475,24.59 12.475,24.59 L10.466,24.59 C10.226,24.59 9.999,24.495 9.828,24.327 C9.507,24.012 9.058,23.42 9.058,22.571 L9.058,14.65 C9.058,14.65 9.445,11.078 5.563,11.078 L3,11 Z" id="Fill-3"></path>
                <path d="M81,10.124 C81,10.124 83.252,21.027 87.911,27.55 C87.911,27.55 86.902,30.113 84.184,30.113 L81.699,30.113 L81.699,31.511 C81.699,31.511 81.699,34.617 85.193,34.617 C88.688,34.617 90.241,32.753 90.241,32.753 C90.241,32.753 97.929,22.27 99.327,14.349 C99.327,14.349 100.958,10.155 97.23,10.155 L94.124,10 C94.124,10 91.251,21.959 90.474,21.881 C89.697,21.804 87.834,12.998 87.834,12.998 C87.834,12.998 86.901,10.124 84.494,10.124 L81,10.124 Z" id="Fill-7"></path>
                <path d="M57.366,13.6546101 C57.366,13.6546101 56.434,10.0826101 51.697,10.0826101 C46.96,10.0826101 43,12.7226101 43,17.9256101 L43,26.2346101 C43,26.2346101 43.621,29.0296101 45.796,29.0296101 C47.97,29.0306101 49.135,29.0306101 49.135,29.0306101 L49.135,18.0806101 C49.135,18.0806101 48.746,15.1296101 51.852,15.1296101 C54.493,15.1296101 54.182,17.7706101 54.182,17.7706101 L54.182,26.9336101 C54.182,26.9336101 54.882,29.1856101 56.9,29.1856101 C58.92,29.1856101 60.395,29.1086101 60.395,29.1086101 L60.395,17.4596101 C60.395,17.4596101 60.551,15.2076101 63.035,15.2076101 C65.52,15.2076101 65.52,18.0036101 65.52,18.0036101 L65.52,26.9336101 C65.52,26.9336101 66.375,29.1856101 68.937,29.1856101 L71.763,29.1856101 L71.763,17.4596101 C71.763,17.4596101 71.652,10.2056101 64.433,10.0046101 C58.842,9.84961014 57.366,13.6546101 57.366,13.6546101" id="Fill-5"></path>
                <path d="M111.862,22.868 C109.59,22.868 107.747,21.04 107.747,18.785 C107.747,16.53 109.589,14.701 111.862,14.701 C114.135,14.701 115.978,16.53 115.978,18.785 C115.978,21.04 114.135,22.868 111.862,22.868 M111.862,9 C106.415,9 102,13.381 102,18.785 C102,24.189 106.416,28.57 111.862,28.57 C117.309,28.57 121.724,24.189 121.724,18.785 C121.724,13.381 117.309,9 111.862,9" id="Fill-10"></path>
                <path d="M125,10.232 L128.494,10.232 C128.494,10.232 131.368,10.155 131.368,13.106 L131.368,21.182 C131.368,21.182 131.834,24.055 134.319,24.055 C136.804,24.055 137.348,22.114 137.348,21.493 C137.348,20.871 137.425,10 137.425,10 L140.454,10.077 C140.454,10.077 143.561,10.077 143.561,12.95 C143.561,15.824 143.638,21.881 143.638,21.881 C143.638,21.881 143.25,29.025 135.562,29.025 C127.874,29.025 125.155,25.065 125.155,22.269 C125.155,19.473 125,10.232 125,10.232" id="Fill-12"></path>
                <path d="M152.75685,28.715 L152.75585,16.988 C152.75585,16.988 153.25785,14.908 155.55185,14.504 C156.87185,14.271 157.88185,15.28 157.88185,15.28 L157.88185,12.066 C157.88185,12.066 157.33785,10 153.22185,10 C149.10685,10 147.00985,12.64 147.00985,16.445 L147.00985,25.22 C147.00985,25.22 146.69885,28.637 149.57185,28.637 C152.44485,28.637 152.75685,28.715 152.75685,28.715" id="Fill-14"></path>
                <path d="M12.364,4.68200036 C12.364,7.26800036 10.267,9.36400036 7.681,9.36400036 C5.095,9.36400036 3,7.26700036 3,4.68200036 C3,2.09600036 5.095,-0.000999642495 7.681,3.57505099e-07 C10.267,3.57505099e-07 12.364,2.09600036 12.364,4.68200036" id="Fill-16"></path>
                <path d="M174.079,15.8674452 C174.079,15.8674452 176.558,15.9334452 176.723,15.8674452 C176.888,15.8014452 178.21,15.2064452 178.342,14.2154452 C178.474,13.2234452 178.342,11.8034452 178.342,11.8034452 L174.079,11.8034452 C174.079,11.8034452 173.98,9.39044515 174.079,9.02744515 C174.179,8.66444515 174.872,7.47444515 175.963,7.40844515 C177.054,7.34244515 178.903,7.34244515 179.598,7.83844515 C179.598,7.83844515 179.894,5.92144515 179.068,4.36844515 C178.243,2.81544515 174.641,3.14644515 174.277,3.01344515 C173.914,2.88144515 169.354,3.64144515 168,8.89544515 L168,25.5154452 C168,25.5154452 168.132,28.0274452 171.766,28.2914452 C175.401,28.5554452 174.046,28.2914452 174.046,28.2914452 L174.079,15.8674452 Z" id="Fill-18"></path>
                <path d="M207.226,28.9744264 L207.226,17.3474264 C207.226,17.3474264 207.687,15.0754264 210.158,15.0754264 C212.628,15.0754264 212.991,17.0794264 213.056,17.4764264 C213.122,17.8744264 213.287,26.8664264 213.287,26.8664264 C213.287,26.8664264 213.682,28.8094264 216.285,28.9744264 C218.886,29.1394264 219.282,28.9744264 219.282,28.9744264 L219.282,17.4764264 C219.282,17.4764264 219.38,15.3714264 218.195,13.2964264 C217.009,11.2214264 213.254,9.93642645 210.455,10.0024264 C207.655,10.0684264 204.954,11.0234264 204.262,11.7154264 C203.57,12.4064264 201.495,13.7244264 201,17.0834264 L201,26.2074264 C201,26.2074264 201.199,28.6264264 204.426,29.0474264 L207.226,28.9744264 Z" id="Fill-20"></path>
                <path d="M192.433759,24.204 C191.809759,24.689 189.120759,25.742 187.490759,24.888 C185.859759,24.033 186.448759,21.94 186.924759,21.667 C187.361759,21.418 188.359759,20.717 192.320759,21.105 C192.320759,21.105 192.690759,24.005 192.433759,24.204 M197.522759,15.747 C197.079759,14.504 195.814759,10 189.135759,10 C182.456759,10 181.758759,13.961 181.758759,13.961 L181.758759,14.582 L181.758759,16.757 C181.758759,16.757 183.621759,14.768 186.029759,14.768 L189.493759,14.768 C189.493759,14.768 192.235759,14.637 192.235759,16.733 L192.235759,17.417 L188.172759,17.596 C179.863759,17.596 181.059759,23.124 181.059759,23.124 C181.059759,23.124 180.438759,29.414 189.290759,29.414 C198.144759,29.415 197.911759,23.901 197.911759,23.901 C198.066759,20.174 197.961759,16.978 197.522759,15.747" id="Fill-23"></path>
                <path d="M29.395,23.209 C27.23,23.209 25.475,21.468 25.475,19.32 C25.475,17.172 27.23,15.43 29.395,15.43 C31.56,15.43 33.315,17.172 33.315,19.32 C33.315,21.468 31.56,23.209 29.395,23.209 M38.789,19.32 C38.789,19.162 38.773,19.009 38.765,18.853 L38.764,18.47 C38.737,18.132 38.682,17.796 38.602,17.467 C37.736,13.208 33.944,10 29.395,10 C24.207,10 20,14.172 20,19.32 C20,24.467 24.207,28.64 29.395,28.64 C31.278,28.64 33.028,28.084 34.498,27.138 C34.934,27.772 35.83,28.671 37.412,28.671 L38.778,28.671 L38.766,19.764 C38.773,19.616 38.789,19.47 38.789,19.32" id="Fill-25"></path>
            </g>
        </g>
    </g>
</svg>