<?xml version="1.0" encoding="UTF-8"?>
<svg width="269px" height="269px" viewBox="0 0 269 269" version="1.1" xmlns="http://www.w3.org/2000/svg" xmlns:xlink="http://www.w3.org/1999/xlink">
    <!-- Generator: sketchtool 48.2 (47327) - http://www.bohemiancoding.com/sketch -->
    <title>CD6D2206-77DD-4A85-9179-02262C0AA8F4</title>
    <desc>Created with sketchtool.</desc>
    <defs></defs>
    <g id="회원가입-2" stroke="none" stroke-width="1" fill="none" fill-rule="evenodd" transform="translate(-181.000000, -216.000000)">
        <g id="Group-4" transform="translate(181.000000, 216.000000)">
            <g id="profile">
                <circle id="Oval" fill="#D8D8D8" cx="134.5" cy="134.5" r="134.5"></circle>
                <path d="M139.002625,133.225806 C125.315447,133.225806 114.181818,122.18584 114.181818,108.614247 C114.181818,95.0409743 125.315447,84 139.002625,84 C152.687263,84 163.818182,95.0399667 163.818182,108.614247 C163.818182,122.18584 152.687263,133.225806 139.002625,133.225806" id="Fill-1" fill="#FFFFFF"></path>
                <path d="M185.681779,193 L92.3168056,193 C89.3813949,193 87,190.659341 87,187.764976 C87,167.086992 99.2916488,146.824811 117.585017,137.347489 C119.508859,136.346638 121.853933,136.603409 123.509376,137.991971 C127.837256,141.620665 133.338969,143.619116 139.006014,143.619116 C144.669522,143.619116 150.168877,141.619736 154.497699,137.994293 C156.149841,136.607124 158.497273,136.347799 160.422059,137.347489 C178.715427,146.830847 191,167.086992 191,187.764976 C190.998821,190.659341 188.622379,193 185.681779,193" id="Fill-3" fill="#FFFFFF"></path>
            </g>
        </g>
    </g>
</svg>