<?xml version="1.0" encoding="UTF-8"?>
<svg width="30px" height="30px" viewBox="0 0 30 30" version="1.1" xmlns="http://www.w3.org/2000/svg" xmlns:xlink="http://www.w3.org/1999/xlink">
    <!-- Generator: sketchtool 48.2 (47327) - http://www.bohemiancoding.com/sketch -->
    <title>F0F00B59-C342-4875-B032-89753C12565D</title>
    <desc>Created with sketchtool.</desc>
    <defs></defs>
    <g id="홈" stroke="none" stroke-width="1" fill="none" fill-rule="evenodd" transform="translate(-358.000000, -1217.000000)">
        <g id="feed_1" transform="translate(-10.000000, 374.000000)" fill="#9B9B9B">
            <g id="action" transform="translate(0.000000, 822.000000)">
                <path d="M397.560233,21.4402514 C397.177732,21.0592377 396.616707,20.9077181 396.097659,21.0562846 L369.097653,28.5560471 C368.488605,28.7255662 368.050627,29.2595058 368.00408,29.8910366 C367.957603,30.5224971 368.311628,31.1150055 368.890653,31.371499 L381.862642,37.137329 L387.628705,50.1090226 C387.870229,50.6549853 388.410161,51 388.999662,51 C389.035733,51 389.073209,50.9985235 389.109209,50.9955001 C389.740688,50.9490247 390.274713,50.510989 390.445643,49.9020279 L397.945687,22.9027143 C398.089688,22.3822041 397.942664,21.8227417 397.560233,21.4402514 Z M373.927643,30.3275255 L391.458216,25.4586493 L382.669691,34.2138798 L373.927643,30.3275255 Z M388.672708,45.0721741 L384.789197,36.3348728 L393.513175,27.6455937 L388.672708,45.0721741 Z" id="share"></path>
            </g>
        </g>
    </g>
</svg>