<?xml version="1.0" encoding="UTF-8"?>
<svg width="39px" height="36px" viewBox="0 0 39 36" version="1.1" xmlns="http://www.w3.org/2000/svg" xmlns:xlink="http://www.w3.org/1999/xlink">
    <!-- Generator: sketchtool 48.2 (47327) - http://www.bohemiancoding.com/sketch -->
    <title>8A31AA5A-E623-42ED-83FD-80219FB259B7</title>
    <desc>Created with sketchtool.</desc>
    <defs></defs>
    <g id="홈" stroke="none" stroke-width="1" fill="none" fill-rule="evenodd" transform="translate(-543.000000, -1289.000000)">
        <g id="Group-2" transform="translate(0.000000, 1246.000000)" fill="#9B9B9B">
            <path d="M554.374384,76.6836199 C550.628418,79.4774816 540.435642,76.9111518 543.600686,77.3886719 C545.859278,77.7294327 547.786508,76.1064401 549.382376,72.519694 C546.779765,69.3981642 545.213967,65.3819379 545.213967,61 C545.213967,51.0588745 553.272842,43 563.213967,43 C573.155093,43 581.213967,51.0588745 581.213967,61 C581.213967,70.9411255 573.155093,79 563.213967,79 C560.001387,79 556.985375,78.1583892 554.374384,76.6836199 Z M554,64 C555.656854,64 557,62.6568542 557,61 C557,59.3431458 555.656854,58 554,58 C552.343146,58 551,59.3431458 551,61 C551,62.6568542 552.343146,64 554,64 Z M563,64 C564.656854,64 566,62.6568542 566,61 C566,59.3431458 564.656854,58 563,58 C561.343146,58 560,59.3431458 560,61 C560,62.6568542 561.343146,64 563,64 Z M572,64 C573.656854,64 575,62.6568542 575,61 C575,59.3431458 573.656854,58 572,58 C570.343146,58 569,59.3431458 569,61 C569,62.6568542 570.343146,64 572,64 Z" id="msg"></path>
        </g>
    </g>
</svg>