<?xml version="1.0" encoding="UTF-8"?>
<svg width="96px" height="96px" viewBox="0 0 96 96" version="1.1" xmlns="http://www.w3.org/2000/svg" xmlns:xlink="http://www.w3.org/1999/xlink">
    <!-- Generator: sketchtool 48.2 (47327) - http://www.bohemiancoding.com/sketch -->
    <title>B1B87ADA-5E20-4410-A17F-28081000AE43</title>
    <desc>Created with sketchtool.</desc>
    <defs></defs>
    <g id="홈" stroke="none" stroke-width="1" fill="none" fill-rule="evenodd" transform="translate(-272.000000, -1260.000000)">
        <g id="Group-2" transform="translate(0.000000, 1246.000000)">
            <g id="write" transform="translate(274.000000, 16.000000)">
                <path d="M42.8966223,36.3319817 C43.9954864,34.5560061 45.5243068,34.5560061 47.4830836,36.3319817 C49.4418604,38.1079574 51.6692599,40.3235866 54.1652821,42.9788693 C55.2782393,44.0412231 55.2782393,45.2044875 54.1652821,46.4686624 C53.052325,47.7328373 47.1114447,53.9099498 36.3426412,65 L25,65 L25,54.1619288 L42.8966223,36.3319817 Z" id="Path-3" fill="#9B9B9B"></path>
                <path d="M47,33.265137 L53.2630169,26.7569152 C55.5234848,24.8397555 57.398307,24.4916106 58.8874835,25.7124806 C60.3766601,26.9333506 62.1408003,28.7207437 64.1799041,31.0746599 C66.2542248,32.5920831 66.5555045,34.1250627 65.0837429,35.6735984 C63.6119813,37.2221342 60.8388722,39.6642681 56.7644153,43 L47,33.265137 Z" id="Path-4" fill="#9B9B9B"></path>
                <circle id="Oval" stroke="#D34A9A" stroke-width="4" cx="46" cy="46" r="46"></circle>
            </g>
        </g>
    </g>
</svg>